<?xml version="1.0"?>
<svg width="1024" height="1024" xmlns="http://www.w3.org/2000/svg" xmlns:svg="http://www.w3.org/2000/svg">
 <g class="layer">
  <title>Layer 1</title>
  <g id="svg_1">
   <path d="m465.57,1015.94c-72.8,-4.95 -141.24,-26.29 -209.14,-65.22c-32.08,-18.41 -38.12,-23.14 -38.12,-29.93c0,-12.18 9.98,-20.75 21.49,-18.44c3.1,0.62 14.38,6.56 25.06,13.22c68.37,42.53 136.83,63.3 219.18,66.49c58.67,2.27 119.77,-8.04 172.87,-29.16c33.05,-13.15 70.78,-34.49 101.86,-57.62c20.73,-15.43 25.15,-16.86 32.61,-10.59c6.26,5.26 10.45,17.07 7.81,22.02c-3.01,5.6 -14.17,14.4 -38.86,30.6c-69.37,45.56 -147.42,72.7 -226.14,78.63c-26.8,2.02 -39.09,2.04 -68.63,0.02m-357.33,-218.83c-8.29,-3.61 -14.87,-12.49 -14.87,-20.1c0,-14.24 10.96,-25.41 24.9,-25.41c8.45,0 15.24,4.49 19.53,12.92c6.04,11.83 1.92,25.82 -9.34,31.85c-7.02,3.77 -12.79,3.98 -20.22,0.74m85.88,0.99c-6.34,-1.83 -14.27,-10.47 -16.52,-17.99c-2.82,-9.42 0.19,-19.04 8.17,-26.05c8.68,-7.62 17.81,-9.54 41.02,-8.66c19.76,0.74 19.94,0.7 23.04,-3.77c1.71,-2.48 11.03,-21.15 20.71,-41.48c57.58,-120.9 92.74,-192.91 155.94,-319.41c58.37,-116.82 71.45,-141.75 74.58,-142.21c3.29,-0.46 5.72,3.27 18.27,28.16c16.54,32.8 62.7,120.78 85.21,162.45c8.36,15.49 20.82,39.24 27.66,52.79c6.85,13.55 13.06,25.43 13.78,26.4c0.72,0.97 18.92,36.22 40.44,78.31c21.5,42.09 42.99,83.38 47.73,91.72c4.73,8.34 8.61,16.96 8.61,19.16c0,7.29 -7.13,18.74 -14.08,22.65c-5.82,3.27 -9.47,3.73 -29.58,3.73c-22.93,0 -22.97,0 -26.84,-4.84c-3.55,-4.43 -32.47,-62.23 -122.61,-245.07c-18.39,-37.27 -34.67,-68.81 -36.18,-70.08c-1.53,-1.27 -5.74,-2.04 -9.4,-1.72l-6.62,0.55l-31.27,64.23c-29.23,60.03 -41.43,85.58 -75.58,158.21c-7.46,15.87 -13.16,29.93 -12.65,31.24c0.69,1.8 5.7,2.39 20.52,2.41c22.46,0.05 30.59,2.64 38.79,12.39c4.36,5.19 4.86,6.99 4.19,15.08c-0.53,6.37 -2.18,11.05 -5.37,15.24c-8.32,10.89 -12.41,11.81 -53.46,11.84c-20.19,0 -37.62,0.62 -38.75,1.32c-1.13,0.72 -10.52,19.52 -20.87,41.78c-10.35,22.24 -19.73,41.04 -20.82,41.74c-2.46,1.6 -102.51,1.46 -108.04,-0.14m315.24,-1.02c-20.08,-8.78 -20.43,-38.43 -0.56,-48.57c6.63,-3.38 11.23,-3.47 187.86,-3.47l181.07,0l7,5.07c7.37,5.35 12.9,14.64 12.85,21.59c-0.07,7 -6.3,18.35 -12.51,22.79l-5.93,4.22l-182.14,0.39c-150.71,0.32 -183.09,-0.04 -187.63,-2.02m429.47,-43.05c-6.53,-3.98 -10.38,-12.37 -8.76,-19.08c0.65,-2.67 6.26,-15.7 12.49,-28.93c19.16,-40.74 33.51,-88.82 40.7,-136.42c4.15,-27.63 4.15,-91.56 -0.02,-118.45c-15.5,-100.1 -61.7,-194.46 -129.54,-264.64c-20.89,-21.61 -55.47,-50.74 -77.52,-65.29c-76.04,-50.17 -159.02,-76.48 -255.75,-81.07c-18.5,-0.86 -26.34,-1.88 -26.94,-3.47c-0.48,-1.21 2.36,-8.64 6.32,-16.49l7.16,-14.27l9.22,0c13.34,0.02 61.75,4.86 79.9,7.99c83.75,14.5 158.38,47.13 226.73,99.17c27.12,20.64 70.94,65.29 92.8,94.57c94.54,126.62 125.39,262 93.55,410.69c-5.74,26.84 -12.99,50 -25.29,80.95c-16.98,42.68 -21.89,52.02 -29.39,56.03c-5.4,2.87 -9.4,2.55 -15.66,-1.28m-876.65,-12.21c-5.37,-3.33 -26.8,-52.78 -38.21,-88.13c-15.22,-47.27 -20.41,-78.98 -21.59,-132.14c-1.27,-56.51 3.73,-95.95 19.02,-150.13c17.46,-61.88 51.39,-127.94 91,-177.2c16.86,-20.96 58.04,-62.32 77.77,-78.1c45.26,-36.2 105.13,-68.69 157.5,-85.47c38.28,-12.27 90.03,-22.51 96.49,-19.11c5.93,3.13 12.74,27.66 8.43,30.34c-1.04,0.63 -13.29,3.06 -27.22,5.39c-30.27,5.05 -47,9.2 -73.61,18.25c-47.52,16.14 -98.27,44.44 -140.47,78.31c-17.6,14.13 -56.14,52.94 -71.03,71.52c-52.72,65.87 -86.14,141.17 -100.71,227.02c-4.29,25.25 -5.35,95.95 -1.8,119.3c6.99,45.84 17.91,83.19 37.36,127.69c15.5,35.53 15.56,35.69 10.49,40.76c-5.46,5.46 -20.99,13.22 -23.42,11.72z" fill="#00aaaa" id="svg_2"/>
  </g>
 </g>
</svg>